<svg xmlns="http://www.w3.org/2000/svg" viewBox="0 0 220 120" role="img" aria-label="EIC">
  <!-- color mark for light backgrounds -->
  <g fill="#ffb800">
    <rect x="52" y="6" width="6" height="16" rx="3"/>
    <rect x="74" y="14" width="6" height="16" rx="3" transform="rotate(38 77 22)"/>
    <rect x="30" y="14" width="6" height="16" rx="3" transform="rotate(-38 33 22)"/>
    <rect x="88" y="32" width="6" height="16" rx="3" transform="rotate(68 91 40)"/>
    <rect x="16" y="32" width="6" height="16" rx="3" transform="rotate(-68 19 40)"/>
  </g>
  <circle cx="55" cy="52" r="28" fill="#ffb800"/>
  <text x="55" y="62" text-anchor="middle" font-family="Arial, Helvetica, sans-serif" font-size="32" font-weight="700" fill="#111">e</text>
  <g fill="#ffb800">
    <rect x="40" y="82" width="30" height="6" rx="2"/>
    <rect x="43" y="90" width="24" height="6" rx="2"/>
    <rect x="46" y="98" width="18" height="6" rx="2"/>
  </g>
  <text x="118" y="68" font-family="Georgia, 'Times New Roman', serif" font-size="54" font-weight="700" fill="#1a1a1a">&amp;</text>
  <text x="158" y="68" font-family="Arial, Helvetica, sans-serif" font-size="54" font-weight="700" fill="#1a1a1a">i</text>
  <circle cx="168" cy="28" r="8" fill="#d61f26"/>
  <text x="148" y="92" text-anchor="middle" font-family="Arial, Helvetica, sans-serif" font-size="16" font-weight="600" fill="#444">Centre</text>
</svg>
